# xmcd
#
# Track frame offsets: 
#        150
#        14455
#        27475
#        40291
#        52380
#        70943
#        82274
#        91028
#        107714
#        122466
#        139896
#        156207
#        171062
#        184156
#        198208
#        212584
#        224567
#        238657
#
# Disc length: 3419 seconds
#
# Revision: 0
# Processed by: cddbd v1.5.2PL0 Copyright (c) Steve Scherf et al.
# Submitted via: ExactAudioCopyFreeDBPlugin 1.0
#
DISCID=080d5912
DTITLE=François Morel - La vie (titre provisoire)
DYEAR=2016
DGENRE=
TTITLE0=La vie, la vie, la vie
TTITLE1=Ce baiser
TTITLE2=C'est encore long, l'enfance ? (duo avec Louis Chedid)
TTITLE3=Au cinéma
TTITLE4=Le petit préféré
TTITLE5=La place
TTITLE6=Dessine moi
TTITLE7=Elle est pas belle, la vie ?
TTITLE8=Trucs inutiles (duo avec Antoine Sahler)
TTITLE9=Celui qui
TTITLE10=Amalia (duo avec Anouk Aïata)
TTITLE11=Striptease
TTITLE12=Satanée chanson
TTITLE13=Petit Jésus
TTITLE14=Pop song
TTITLE15=Selon la police
TTITLE16=La vieille dame et le banc
TTITLE17=Populaire
EXTD=
EXTT0=
EXTT1=
EXTT2=
EXTT3=
EXTT4=
EXTT5=
EXTT6=
EXTT7=
EXTT8=
EXTT9=
EXTT10=
EXTT11=
EXTT12=
EXTT13=
EXTT14=
EXTT15=
EXTT16=
EXTT17=
PLAYORDER=
